<svg width="64" height="64" viewBox="0 0 64 64" fill="none" xmlns="http://www.w3.org/2000/svg"><path fill="#fff" d="M0 0h64v64H0z"/><path d="M32 36.094c2.384 0 4.316-1.876 4.316-4.19 0-2.313-1.932-4.19-4.316-4.19s-4.316 1.877-4.316 4.19c0 2.314 1.932 4.19 4.316 4.19z" fill="#000"/><path d="M47.599 24.628c-.53-.147-1.06-.294-1.59-.515.075-.367.15-.661.227-1.029 1.211-5.66.378-10.07-2.196-11.54-2.5-1.396-6.512-.073-10.828 3.602-.38.367-.833.735-1.212 1.102-.303-.22-.53-.514-.833-.735-4.468-3.822-8.86-5.292-11.434-3.895-2.499 1.396-3.332 5.439-2.196 10.878.076.515.227 1.03.379 1.544-.606.147-1.212.367-1.817.514-5.15 1.838-8.33 4.558-8.33 7.35 0 2.867 3.408 5.807 8.86 7.645.454.147.832.294 1.287.367-.152.589-.303 1.103-.379 1.691-1.06 5.292-.151 9.335 2.272 10.732a4.811 4.811 0 002.347.587c2.5 0 5.68-1.47 8.86-4.19.303-.293.681-.587.984-.881.454.44.909.808 1.287 1.176C36.392 51.603 39.345 53 41.692 53c.833 0 1.59-.147 2.272-.588 2.575-1.47 3.483-5.733 2.347-11.246a7.496 7.496 0 00-.303-1.25c.303-.073.606-.147.91-.294 5.83-1.91 9.313-4.777 9.313-7.717 0-2.794-3.256-5.513-8.632-7.277zm-4.544-11.32c1.363.809 2.348 4.043 1.212 9.409-.076.294-.152.588-.227.955-2.045-.44-4.165-.808-6.512-.955-1.363-1.838-2.726-3.528-4.09-4.998.38-.368.758-.662 1.136-1.03 3.938-3.38 7.194-4.116 8.481-3.38zM38.74 35.727c-.757 1.25-1.514 2.499-2.347 3.601a41.76 41.76 0 01-4.392.22c-1.514 0-2.953-.073-4.392-.146-.833-1.176-1.59-2.426-2.347-3.675a37.254 37.254 0 01-2.045-3.822c.606-1.25 1.288-2.573 2.045-3.823.757-1.25 1.514-2.499 2.347-3.601 1.439-.074 2.953-.147 4.392-.147 1.514 0 2.953.073 4.392.147a59.435 59.435 0 012.347 3.601c.757 1.25 1.439 2.573 2.12 3.75a47.96 47.96 0 01-2.12 3.895zm3.18-1.47a42.248 42.248 0 011.666 4.116c-1.438.294-2.953.588-4.543.735.53-.735.984-1.544 1.514-2.352.53-.809.985-1.69 1.364-2.5zm-9.843 10.658c-.985-1.03-1.969-2.132-2.878-3.382.909 0 1.893.074 2.802.074.984 0 1.969 0 2.953-.074-.984 1.177-1.893 2.353-2.877 3.382zm-7.118-5.734a38.04 38.04 0 01-4.468-.661c.455-1.323.985-2.72 1.59-4.116l1.364 2.425c.53.735.984 1.544 1.514 2.352zm-2.877-9.555c-.606-1.396-1.136-2.72-1.515-4.043 1.363-.294 2.878-.514 4.392-.735-.53.735-.984 1.544-1.514 2.352-.455.809-.91 1.617-1.363 2.426zM32 19.116c.984 1.028 1.893 2.13 2.877 3.38-.984-.073-1.893-.073-2.877-.073-.984 0-1.893 0-2.877.073.984-1.25 1.893-2.352 2.877-3.38zm8.556 8.01a25.238 25.238 0 00-1.514-2.351c1.514.22 3.029.44 4.392.735-.454 1.323-.909 2.646-1.59 4.042-.379-.735-.833-1.543-1.288-2.425zM19.659 22.13c-.985-4.998-.076-8.086 1.211-8.747 1.363-.809 4.77 0 9.01 3.675.228.22.455.441.758.662-1.439 1.47-2.802 3.16-4.089 4.924-2.271.22-4.467.515-6.436.956-.227-.515-.379-.956-.454-1.47zM17.31 37.638c-5.149-1.69-7.496-4.116-7.496-5.733 0-1.47 2.196-3.749 7.042-5.366.53-.147 1.06-.368 1.666-.515.605 1.911 1.438 3.896 2.347 5.954-.984 2.058-1.817 4.116-2.423 6.027-.379-.147-.757-.22-1.136-.367zm12.418 9.555c-4.089 3.455-7.42 4.19-8.859 3.455-1.363-.735-2.272-3.675-1.287-8.6.075-.515.227-1.029.378-1.544 1.97.442 4.165.736 6.512.883 1.363 1.837 2.726 3.528 4.165 4.998-.303.22-.606.514-.909.808zm14.69-5.733c1.06 5.145 0 8.38-1.363 9.114-1.363.735-4.392.074-8.329-3.234-.379-.294-.757-.661-1.212-1.029 1.363-1.47 2.726-3.16 4.09-4.998 2.347-.22 4.543-.515 6.587-.956l.227 1.103zm1.969-3.822c-.227.073-.53.147-.833.22-.606-1.837-1.439-3.895-2.423-5.953a44.986 44.986 0 002.347-5.88c.53.146.985.293 1.44.44 4.997 1.691 7.193 3.97 7.193 5.44.075 1.543-2.348 4.042-7.724 5.733z" fill="#000"/></svg>