<svg width="64" height="64" viewBox="0 0 64 64" fill="none" xmlns="http://www.w3.org/2000/svg"><path fill="#fff" d="M0 0h64v64H0z"/><path d="M56 32c0 13.255-10.745 24-24 24C18.746 56 8 45.255 8 32 8 18.746 18.746 8 32 8c13.255 0 24 10.746 24 24z" fill="#000"/><path d="M32.404 22.661l6.21 15.329-9.38-7.39 3.17-7.939zm11.033 18.86l-9.553-22.99c-.273-.664-.818-1.015-1.48-1.015-.663 0-1.248.351-1.52 1.014L20.397 43.748h3.587l4.15-10.397 12.387 10.007c.498.403.858.585 1.325.585.936 0 1.754-.702 1.754-1.714 0-.165-.058-.427-.164-.708z" fill="#fff"/></svg>