<svg width="64" height="64" viewBox="0 0 64 64" fill="none" xmlns="http://www.w3.org/2000/svg"><g clip-path="url(#clip0)"><path fill="#fff" d="M0 0h64v64H0z"/><path fill="#fff" d="M1 19h3v3H1zm0 12h3v3H1z"/><path d="M17.266 40.428h-2.532V29h2.532v.7c.23-.467 1.151-.933 2.072-.933 2.302 0 3.683 2.099 3.683 4.431 0 2.333-1.38 4.432-3.683 4.432-.92 0-1.842-.467-2.072-.933v3.731zm0-5.83c.23.466.921.933 1.381.933 1.152 0 1.842-.933 1.842-2.333 0-1.4-.69-2.332-1.842-2.332-.69 0-1.15.466-1.611.933v2.799h.23zm14.044 2.565h-2.533v-.466c-.23.466-1.151.933-2.072.933-1.842 0-2.763-1.166-2.763-3.032V29h2.302v5.131c0 .933.46 1.4 1.382 1.4.69 0 1.381-.467 1.381-1.167V29h2.532v8.163h-.23zm3.683 3.265H32.69V29h2.302v.7c.23-.467 1.15-.933 2.072-.933 2.302 0 3.683 2.099 3.683 4.431 0 2.333-1.381 4.432-3.683 4.432-.921 0-1.842-.467-2.072-.933v3.731zm0-5.83c.23.466.92.933 1.611.933 1.151 0 2.072-.933 2.072-2.333 0-1.4-.69-2.332-1.842-2.332-.69 0-1.15.466-1.611.933v2.799h-.23zm9.208 5.83H41.9V29h2.302v.7c.23-.467 1.151-.933 2.072-.933 2.302 0 3.684 2.099 3.684 4.431 0 2.333-1.382 4.432-3.684 4.432-.92 0-1.841-.467-2.072-.933v3.731zm0-5.83c.23.466.921.933 1.612.933 1.151 0 2.072-.933 2.072-2.333 0-1.4-.69-2.332-2.072-2.332-.69 0-1.151.466-1.612.933v2.799zm14.044 0c-.23 1.632-1.612 2.799-3.684 2.799-2.302 0-3.913-1.866-3.913-4.432 0-2.566 1.611-4.432 3.913-4.432 2.302 0 3.684 1.633 3.684 4.199v.7h-5.526c0 1.166.691 2.099 1.842 2.099.69 0 1.382-.467 1.612-.933h2.072zm-5.526-2.333h3.224c0-.7-.46-1.632-1.382-1.632-.92 0-1.611.466-1.842 1.632zm7.137-1.399h-1.15V29h1.15v-2.332h2.302V29H64v1.866h-1.842v3.732c0 .7.23.933.921.933.46 0 .69 0 .921-.234v2.1c-.23.233-.69.233-1.381.233-1.612 0-2.763-.933-2.763-2.8v-3.964zM11.28 23.869H6.216V29h5.064v-5.131zm-7.827 9.562H1.842V31.8h1.611v1.633zm1.842-3.498H0v5.364h5.295v-5.364z" fill="#000"/><path d="M4.478 20.551l-1.302 1.32 3.093 3.133 1.302-1.32-3.093-3.133zm1.938 6.833l-2.445 2.47 1.3 1.322 2.445-2.471-1.3-1.321z" fill="#000"/><path d="M3.453 21.07H1.842v-1.633h1.611v1.633zm1.842-3.499H0v5.365h5.295V17.57z" fill="#000"/></g><defs><clipPath id="clip0"><path fill="#fff" d="M0 0h64v64H0z"/></clipPath></defs></svg>