<svg width="64" height="64" viewBox="0 0 64 64" fill="none" xmlns="http://www.w3.org/2000/svg"><path fill="#fff" d="M0 0h64v64H0z"/><circle cx="34.493" cy="39.173" r="4.622" fill="#fff"/><path d="M25.91 51.058c0 3.282-1.98 5.942-4.533 5.942-2.553 0-4.71-2.66-4.71-5.942s1.32-5.943 4.621-5.943c2.553 0 4.622 2.66 4.622 5.943z" fill="#fff"/><path fill-rule="evenodd" clip-rule="evenodd" d="M16.667 49.647v-22.83c0-9.585 7.685-17.355 17.166-17.355C43.314 9.462 51 17.232 51 26.817c0 9.459-7.485 17.15-16.794 17.351v.004c-2.679 0-4.851-2.196-4.851-4.905 0-2.683 2.132-4.864 4.777-4.904v-.006c3.984-.159 7.165-3.474 7.165-7.54 0-4.168-3.342-7.546-7.464-7.546s-7.463 3.378-7.463 7.546v25.278c0 2.71-2.172 4.905-4.852 4.905a4.793 4.793 0 01-2.788-.89 3.392 3.392 0 002.415-3.26c0-1.876-1.504-3.396-3.359-3.396-.392 0-.77.068-1.12.193zm17.54-6.984c1.854 0 3.358-1.52 3.358-3.396 0-1.875-1.504-3.395-3.358-3.395-1.855 0-3.36 1.52-3.36 3.395 0 1.876 1.505 3.396 3.36 3.396z" fill="#000"/></svg>