<svg width="64" height="64" viewBox="0 0 64 64" fill="none" xmlns="http://www.w3.org/2000/svg"><path fill="#fff" d="M0 0h64v64H0z"/><path fill-rule="evenodd" clip-rule="evenodd" d="M14.667 15.904v-3.04c0-.474.393-.864.872-.864h5.638c.48 0 .872.39.872.864v12.649c-.018 1.35.105 1.272-.71.198l-5.577-7.35c-.866-1.141-1.095-1.048-1.095-2.457" fill="#000"/><path fill-rule="evenodd" clip-rule="evenodd" d="M22.05 37.579c0 1.528.258 3.016.825 4.439.523 1.317 1.266 2.51 2.258 3.531.99 1.016 2.153 1.788 3.457 2.351 1.402.607 2.886.867 4.41.867 1.547 0 3.063-.257 4.486-.868 1.302-.56 2.463-1.333 3.441-2.355a10.745 10.745 0 002.241-3.53c.562-1.42.81-2.912.81-4.435v-18.7a.855.855 0 01-.027-.213v-5.802c0-.474.392-.864.872-.864h5.638c.48 0 .872.39.872.864v25.11c0 2.49-.476 4.913-1.48 7.2-.94 2.144-2.244 4.07-3.933 5.703-1.681 1.624-3.64 2.875-5.812 3.76-2.266.924-4.66 1.363-7.107 1.363a18.45 18.45 0 01-4.876-.648 17.946 17.946 0 01-4.387-1.834 18.707 18.707 0 01-3.693-2.844 18.109 18.109 0 01-2.86-3.667 18.3 18.3 0 01-1.853-4.323 17.644 17.644 0 01-.665-4.84V27.28c.018-1.35-.105-1.271.71-.198l5.577 7.351c.866 1.141 1.095 1.048 1.095 2.456v.689z" fill="#000"/></svg>