<svg width="24" height="24" viewBox="0 0 24 24" fill="none" xmlns="http://www.w3.org/2000/svg"><path fill-rule="evenodd" clip-rule="evenodd" d="M12 0c3.259 0 3.668.014 4.948.072 1.277.058 2.15.261 2.912.558.79.307 1.459.717 2.126 1.384A5.88 5.88 0 0123.37 4.14c.297.763.5 1.635.558 2.912C23.986 8.332 24 8.741 24 12c0 3.259-.014 3.668-.072 4.948-.059 1.277-.261 2.15-.558 2.912a5.88 5.88 0 01-1.384 2.126 5.88 5.88 0 01-2.126 1.384c-.763.297-1.635.5-2.912.558-1.28.058-1.689.072-4.948.072-3.259 0-3.668-.014-4.948-.072-1.277-.059-2.15-.261-2.912-.558a5.88 5.88 0 01-2.126-1.384A5.881 5.881 0 01.63 19.86c-.297-.763-.5-1.635-.558-2.912C.014 15.668 0 15.259 0 12c0-3.259.014-3.668.072-4.948C.13 5.775.333 4.902.63 4.14a5.882 5.882 0 011.384-2.126A5.882 5.882 0 014.14.63C4.903.333 5.775.13 7.052.072 8.332.014 8.741 0 12 0zm0 2.286c-3.164 0-3.539.012-4.788.069-1.155.052-1.783.246-2.2.408a3.67 3.67 0 00-1.363.886 3.67 3.67 0 00-.886 1.363c-.162.417-.356 1.045-.408 2.2-.057 1.25-.07 1.624-.07 4.788s.013 3.539.07 4.788c.052 1.155.246 1.783.408 2.2.215.553.472.948.886 1.363.415.415.81.671 1.363.886.417.163 1.045.356 2.2.408 1.25.057 1.624.07 4.788.07s3.539-.013 4.788-.07c1.155-.052 1.783-.245 2.2-.408a3.67 3.67 0 001.363-.886 3.67 3.67 0 00.886-1.363c.163-.417.356-1.045.408-2.2.057-1.25.07-1.624.07-4.788s-.013-3.539-.07-4.788c-.052-1.155-.245-1.783-.408-2.2a3.67 3.67 0 00-.886-1.363 3.67 3.67 0 00-1.363-.886c-.417-.162-1.045-.356-2.2-.408-1.25-.057-1.624-.07-4.788-.07zm0 3.428a6.286 6.286 0 110 12.572 6.286 6.286 0 010-12.572zM12 16a4 4 0 100-8 4 4 0 000 8zm8.571-9.714a1.714 1.714 0 11-3.428 0 1.714 1.714 0 013.428 0z" fill="#E0E0E0"/></svg>