<svg width="24" height="24" viewBox="0 0 24 24" fill="none" xmlns="http://www.w3.org/2000/svg"><path fill-rule="evenodd" clip-rule="evenodd" d="M.606 24V7.696h4.678V24H.606zM18.063 7.54C21.388 7.54 24 9.883 24 14.933V24h-5.304v-8.437c0-2.208-.83-3.716-2.654-3.716-1.396 0-2.172 1.017-2.533 1.998-.136.352-.115.842-.115 1.332V24H8.14s.068-14.946 0-16.304h5.255v2.559c.311-1.12 1.99-2.716 4.67-2.716zM2.857 0c1.726 0 2.787 1.217 2.821 2.826 0 1.58-1.095 2.831-2.853 2.831H2.79C1.098 5.657 0 4.41 0 2.831 0 1.221 1.13 0 2.857 0z" fill="#E0E0E0"/></svg>