<svg width="16" height="24" viewBox="0 0 16 24" fill="none" xmlns="http://www.w3.org/2000/svg"><path d="M.48 21.04L.813 24l2.16-2.053 3.694-10.133a5.22 5.22 0 01-2.36-1.307L.48 21.04zm11.213-10.533a5.29 5.29 0 01-2.36 1.306l3.694 10.134L15.187 24l.346-2.96-3.84-10.533zM12 6.667c0-1.734-1.12-3.2-2.667-3.76V0H6.667v2.907C5.12 3.467 4 4.933 4 6.667c0 2.213 1.787 4 4 4s4-1.787 4-4zM8 8c-.733 0-1.333-.6-1.333-1.333 0-.734.6-1.334 1.333-1.334s1.333.6 1.333 1.334C9.333 7.4 8.733 8 8 8z" fill="#E0E0E0"/></svg>